# File created by Blade
# Date/Time:  Tue Apr 07 20:49:23 2015
# Frame Rate: 120.000 fps
#------------------------------------------------------
:FULLY-SPECIFIED
:DEGREES
827
root 0.460710 33.787380 -5.693475 0.311817 49.344142 -111.195017
Spine -50.504380 -11.323770 35.289103
Head -14.844488 35.298017 33.096548
LeftShoulder -25.591501 37.354705 30.318145
LeftArm 72.889418 -68.456107 -68.277220
LeftForeArm 15.539355 -0.000000 8.119451
LeftHand 7.619755 0.000000 15.478378
LeftHandThumb1 -26.253704 0.000000 33.147579
RightShoulder -23.618197 -3.151703 -29.320400
RightArm -22.242620 37.339180 18.081578
RightForeArm 57.095300 -0.000000 -2.697631
RightHand 2.762440 -0.000000 12.723583
RightHandThumb1 -24.326973 -0.000000 -32.862282
LeftUpLeg -100.845050 44.279157 9.741914
LeftLeg -18.351643 -0.000000 0.000000
LeftFoot 11.422262 14.906505 -6.295741
LeftToeBase -12.168404 -0.000000 0.000000
RightUpLeg 35.252246 19.853599 -15.384571
RightLeg 54.827382 -0.000000 -0.000000
RightFoot 54.793750 10.285944 0.467144
RightToeBase 6.738118 -0.000000 -0.000000
828
root 0.450239 33.786404 -5.705684 0.485766 49.413980 -111.019320
Spine -50.507672 -11.279898 35.336302
Head -14.886539 35.368405 32.868470
LeftShoulder -25.630726 37.343698 30.310149
LeftArm 72.885027 -68.401401 -68.318298
LeftForeArm 15.565398 0.000000 8.105398
LeftHand 7.692211 -0.000000 15.431758
LeftHandThumb1 -26.253704 0.000000 33.147579
RightShoulder -23.610061 -3.177793 -29.306093
RightArm -22.211834 37.217939 18.118318
RightForeArm 57.188772 -0.000000 -2.701411
RightHand 2.720843 -0.000000 12.852022
RightHandThumb1 -24.326973 -0.000000 -32.862282
LeftUpLeg -100.861589 44.214666 9.714394
LeftLeg -18.310318 -0.000000 0.000000
LeftFoot 11.435855 14.972127 -6.119400
LeftToeBase -12.177868 -0.000000 0.000000
RightUpLeg 35.202265 19.869559 -15.362802
RightLeg 54.871393 -0.000000 -0.000000
RightFoot 54.718428 10.235300 0.376455
RightToeBase 7.224352 -0.000000 -0.000000
829
root 0.438299 33.785887 -5.719778 0.670138 49.497370 -110.830219
Spine -50.518028 -11.242410 35.365729
Head -14.929050 35.328332 32.670577
LeftShoulder -25.599706 37.311553 30.354841
LeftArm 72.601970 -68.353331 -68.119226
LeftForeArm 15.527944 -0.000000 8.144665
LeftHand 7.690425 0.000000 15.358937
LeftHandThumb1 -26.253704 0.000000 33.147579
RightShoulder -23.583869 -3.147952 -29.328684
RightArm -22.322420 37.192236 18.065647
RightForeArm 57.149659 0.000000 -2.643437
RightHand 2.725788 -0.000000 12.916401
RightHandThumb1 -24.326973 -0.000000 -32.862282
LeftUpLeg -100.866406 44.147270 9.712472
LeftLeg -18.265187 -0.000000 0.000000
LeftFoot 11.492447 15.059574 -5.976989
LeftToeBase -12.265354 -0.000000 0.000000
RightUpLeg 35.149195 19.860264 -15.370968
RightLeg 54.915980 -0.000000 -0.000000
RightFoot 54.782377 10.272766 0.396808
RightToeBase 4.614087 -0.000000 -0.000000
830
root 0.427115 33.785479 -5.733004 0.827379 49.602245 -110.685029
Spine -50.515888 -11.222029 35.422505
Head -15.067063 35.479902 32.433319
LeftShoulder -25.648942 37.290315 30.361565
LeftArm 72.534624 -68.286882 -68.094866
LeftForeArm 15.470313 -0.000000 8.133539
LeftHand 7.725705 -0.000000 15.436635
LeftHandThumb1 -26.253704 0.000000 33.147579
RightShoulder -23.749496 -3.279028 -29.231316
RightArm -21.991295 37.253535 18.244320
RightForeArm 57.291557 -0.000000 -2.724148
RightHand 2.807557 -0.000000 12.976393
RightHandThumb1 -24.326973 -0.000000 -32.862282
LeftUpLeg -100.839267 44.086212 9.804250
LeftLeg -18.197020 -0.000000 0.000000
LeftFoot 11.504331 15.181020 -5.894540
LeftToeBase -12.310649 -0.000000 0.000000
RightUpLeg 35.083860 19.820570 -15.350308
RightLeg 54.966436 -0.000000 -0.000000
RightFoot 54.778839 10.273265 0.351134
RightToeBase 4.699974 -0.000000 -0.000000
831
root 0.415652 33.786770 -5.748511 1.008376 49.715274 -110.484520
Spine -50.508491 -11.208477 35.424278
Head -15.164775 35.612757 32.246412
LeftShoulder -25.656491 37.300656 30.360624
LeftArm 72.632702 -68.265374 -68.237441
LeftForeArm 15.442566 -0.000000 8.162818
LeftHand 7.656662 -0.000000 15.372775
LeftHandThumb1 -26.253704 0.000000 33.147579
RightShoulder -23.680428 -3.167792 -29.310389
RightArm -22.393725 37.361121 18.052846
RightForeArm 57.081401 0.000000 -2.511167
RightHand 2.765082 -0.000000 12.880733
RightHandThumb1 -24.326973 -0.000000 -32.862282
LeftUpLeg -100.812026 44.006020 9.849559
LeftLeg -18.107677 -0.000000 0.000000
LeftFoot 11.489954 15.246581 -5.816455
LeftToeBase -12.350531 -0.000000 0.000000
RightUpLeg 35.017623 19.778310 -15.367753
RightLeg 55.035991 -0.000000 -0.000000
RightFoot 54.778355 10.319534 0.361635
RightToeBase 5.107574 -0.000000 -0.000000
832
root 0.403692 33.787561 -5.763051 1.166769 49.820535 -110.291613
Spine -50.481793 -11.219948 35.438597
Head -15.260288 35.729994 32.116938
LeftShoulder -25.660506 37.292911 30.366242
LeftArm 72.396246 -68.240625 -68.000026
LeftForeArm 15.340726 0.000000 8.130020
LeftHand 7.753395 -0.000000 15.325860
LeftHandThumb1 -26.253704 0.000000 33.147579
RightShoulder -23.615277 -2.962424 -29.397700
RightArm -22.766944 37.380087 17.868394
RightForeArm 56.890058 -0.000000 -2.310635
RightHand 2.754694 -0.000000 12.740460
RightHandThumb1 -24.326973 -0.000000 -32.862282
LeftUpLeg -100.696420 43.951448 9.993632
LeftLeg -18.035931 -0.000000 0.000000
LeftFoot 11.469999 15.369649 -5.719235
LeftToeBase -12.417491 -0.000000 0.000000
RightUpLeg 34.974784 19.751259 -15.368213
RightLeg 55.075289 -0.000000 -0.000000
RightFoot 54.842235 10.397921 0.449258
RightToeBase 4.953700 -0.000000 -0.000000
833
root 0.390520 33.788389 -5.779913 1.337484 49.945312 -110.082850
Spine -50.442854 -11.234363 35.428194
Head -15.420503 35.878098 31.961770
LeftShoulder -25.703896 37.304370 30.333159
LeftArm 72.456104 -68.224775 -68.032797
LeftForeArm 15.282235 -0.000000 8.095558
LeftHand 7.707458 -0.000000 15.239570
LeftHandThumb1 -26.253704 0.000000 33.147579
RightShoulder -23.663096 -2.948328 -29.379296
RightArm -22.860289 37.553875 17.823860
RightForeArm 56.838543 -0.000000 -2.193561
RightHand 2.732343 -0.000000 12.594412
RightHandThumb1 -24.326973 -0.000000 -32.862282
LeftUpLeg -100.598273 43.869424 10.113474
LeftLeg -17.953747 -0.000000 0.000000
LeftFoot 11.449075 15.453234 -5.615780
LeftToeBase -12.463116 -0.000000 0.000000
RightUpLeg 34.936959 19.700113 -15.407734
RightLeg 55.103556 -0.000000 -0.000000
RightFoot 54.878362 10.499961 0.558448
RightToeBase 4.796000 -0.000000 -0.000000
834
root 0.377175 33.787500 -5.799159 1.575265 50.078455 -109.818746
Spine -50.452448 -11.240778 35.383162
Head -15.518571 35.899674 31.872820
LeftShoulder -25.676965 37.303551 30.368951
LeftArm 72.401095 -68.203495 -67.937010
LeftForeArm 15.272245 -0.000000 7.972448
LeftHand 7.813945 0.000000 15.240008
LeftHandThumb1 -26.253704 0.000000 33.147579
RightShoulder -23.702215 -2.956703 -29.331335
RightArm -22.879911 37.634887 17.797555
RightForeArm 56.773253 -0.000000 -2.182728
RightHand 2.785637 -0.000000 12.636514
RightHandThumb1 -24.326973 -0.000000 -32.862282
LeftUpLeg -100.483868 43.785090 10.225157
LeftLeg -17.905887 -0.000000 0.000000
LeftFoot 11.442072 15.586779 -5.454779
LeftToeBase -12.545250 -0.000000 0.000000
RightUpLeg 34.866431 19.629650 -15.508381
RightLeg 55.135938 -0.000000 -0.000000
RightFoot 54.896631 10.622803 0.584025
RightToeBase 4.625044 -0.000000 -0.000000
835
root 0.363575 33.784493 -5.817973 1.841919 50.193405 -109.496377
Spine -50.439663 -11.236872 35.287251
Head -15.606404 35.984310 31.800168
LeftShoulder -25.616605 37.294415 30.431365
LeftArm 72.188073 -68.185389 -67.716661
LeftForeArm 15.194534 -0.000000 7.894328
LeftHand 7.854800 -0.000000 15.329647
LeftHandThumb1 -26.253704 0.000000 33.147579
RightShoulder -23.752265 -2.948085 -29.298442
RightArm -22.834959 37.503010 17.870511
RightForeArm 56.884816 -0.000000 -2.179612
RightHand 2.809416 -0.000000 12.640546
RightHandThumb1 -24.326973 -0.000000 -32.862282
LeftUpLeg -100.142210 43.760714 10.532463
LeftLeg -17.965272 -0.000000 0.000000
LeftFoot 11.479150 15.911338 -5.250751
LeftToeBase -12.551783 -0.000000 0.000000
RightUpLeg 34.823560 19.608081 -15.616551
RightLeg 55.183299 -0.000000 -0.000000
RightFoot 54.902603 10.557433 0.701452
RightToeBase 4.874303 -0.000000 -0.000000
836
root 0.349575 33.781746 -5.837923 2.117416 50.288553 -109.150296
Spine -50.398605 -11.228683 35.174409
Head -15.696843 36.102421 31.709170
LeftShoulder -25.630481 37.368142 30.403489
LeftArm 72.319678 -68.195789 -67.777517
LeftForeArm 15.180685 -0.000000 7.786468
LeftHand 7.845729 -0.000000 15.386367
LeftHandThumb1 -26.253704 0.000000 33.147579
RightShoulder -23.809363 -2.990579 -29.225891
RightArm -22.711137 37.344272 17.988011
RightForeArm 57.173308 -0.000000 -2.225778
RightHand 2.761031 0.000000 12.785536
RightHandThumb1 -24.326973 -0.000000 -32.862282
LeftUpLeg -99.900746 43.713679 10.703737
LeftLeg -17.972415 -0.000000 0.000000
LeftFoot 11.472244 16.127882 -5.026559
LeftToeBase -12.566796 -0.000000 0.000000
RightUpLeg 34.787720 19.623437 -15.724016
RightLeg 55.247598 -0.000000 -0.000000
RightFoot 54.891974 10.578107 0.659207
RightToeBase 4.681139 -0.000000 -0.000000
837
root 0.335178 33.777642 -5.855555 2.341735 50.357570 -108.888219
Spine -50.373008 -11.183778 35.145847
Head -15.717454 36.232416 31.646948
LeftShoulder -25.596958 37.393744 30.452526
LeftArm 72.342333 -68.174228 -67.792643
LeftForeArm 15.231845 -0.000000 7.639460
LeftHand 7.889141 -0.000000 15.326982
LeftHandThumb1 -26.253704 0.000000 33.147579
RightShoulder -23.813808 -3.020912 -29.236579
RightArm -22.679341 37.289426 18.062055
RightForeArm 57.296916 -0.000000 -2.221810
RightHand 2.755662 0.000000 12.866050
RightHandThumb1 -24.326973 -0.000000 -32.862282
LeftUpLeg -99.679081 43.698660 10.934358
LeftLeg -17.951603 -0.000000 0.000000
LeftFoot 11.434464 16.376492 -4.769461
LeftToeBase -12.526316 -0.000000 0.000000
RightUpLeg 34.733635 19.670500 -15.771661
RightLeg 55.306180 -0.000000 -0.000000
RightFoot 54.876828 10.530948 0.586677
RightToeBase 4.882515 -0.000000 -0.000000
838
root 0.319472 33.774214 -5.873593 2.526070 50.417313 -108.658929
Spine -50.330275 -11.129630 35.139020
Head -15.719678 36.324661 31.551063
LeftShoulder -25.550581 37.414058 30.448170
LeftArm 72.047437 -68.165130 -67.400473
LeftForeArm 15.121682 -0.000000 7.489206
LeftHand 7.929803 0.000000 15.304282
LeftHandThumb1 -26.253704 0.000000 33.147579
RightShoulder -23.692317 -3.032394 -29.325493
RightArm -22.904957 37.222106 18.081861
RightForeArm 57.365760 0.000000 -2.078600
RightHand 2.704412 -0.000000 12.851386
RightHandThumb1 -24.326973 -0.000000 -32.862282
LeftUpLeg -99.487250 43.672252 11.147202
LeftLeg -17.915232 -0.000000 0.000000
LeftFoot 11.415846 16.591252 -4.463008
LeftToeBase -12.513285 -0.000000 0.000000
RightUpLeg 34.712579 19.758288 -15.760943
RightLeg 55.363984 -0.000000 -0.000000
RightFoot 54.834314 10.470239 0.521382
RightToeBase 4.942855 -0.000000 -0.000000
